<?xml version="1.0" encoding="UTF-8"?>
<svg id="Layer_2" data-name="Layer 2" xmlns="http://www.w3.org/2000/svg" viewBox="0 0 161.74 136.76">
  <defs>
    <style>
      .cls-1 {
        fill: #020202;
      }
    </style>
  </defs>
  <g id="Layer_1-2" data-name="Layer 1">
    <polygon class="cls-1" points="46.39 45.47 43.6 60.61 28.6 60.61 25.74 76.04 10.66 75.92 13.33 60.77 28.46 60.66 31.2 45.61 46.39 45.47"/>
    <polygon class="cls-1" points="78.6 121.55 75.77 136.75 45.58 136.69 48.23 121.48 78.6 121.55"/>
    <polygon class="cls-1" points="96.36 106.31 93.64 121.47 78.6 121.55 81.25 106.31 96.36 106.31"/>
    <polygon class="cls-1" points="50.75 106.36 48.23 121.48 33.06 121.49 35.56 106.35 20.5 106.3 23.14 91.11 38.29 91.18 35.81 106.21 50.75 106.36"/>
    <path class="cls-1" d="M93.64,121.47l15.1-.02,2.73-15.06-15.12-.08,2.58-14.94-15.24-.19,2.75-15.02-14.89-.21-2.79,15.01,15.14.22-2.66,15.14-30.5.05,5.32-30.12-15.05-.45,2.58-15.18,30.24.08,2.51-15.02-29.96-.2,2.7-15.12,45.51.03-5.28,30.15,14.95.28,5.37-30.19-15.11-.21,2.53-15.17-30.12-.02L69.45.01h30.33s-2.38,15.11-2.38,15.11l14.93-.05,2.68-14.78c24.52.67,45.51,19.85,45.9,45.1l.82,52.39-17.05.08-5.22,29.64c-.85,4.84-4.73,9.07-10.04,9.09l-38.36.12,2.57-15.26ZM144.89,75.92l2.59-15.04-14.95-.12-2.7,15.08,15.06.08Z"/>
    <polygon class="cls-1" points="16.16 45.57 .85 45.54 3.42 30.4 18.66 30.3 16.16 45.57"/>
    <polygon class="cls-1" points="51.88 15.19 36.57 15.16 39.04 .16 54.31 .05 51.88 15.19"/>
    <polygon class="cls-1" points="15.23 136.76 0 136.64 2.61 121.52 17.8 121.44 15.23 136.76"/>
  </g>
</svg>